<svg id="visual" viewBox="0 0 960 540" width="960" height="540" xmlns="http://www.w3.org/2000/svg" xmlns:xlink="http://www.w3.org/1999/xlink" version="1.1"><rect x="0" y="0" width="960" height="540" fill="#fff"></rect><path d="M0 340L17.8 332.7C35.7 325.3 71.3 310.7 106.8 311.5C142.3 312.3 177.7 328.7 213.2 341.5C248.7 354.3 284.3 363.7 320 357.2C355.7 350.7 391.3 328.3 426.8 321.5C462.3 314.7 497.7 323.3 533.2 323.2C568.7 323 604.3 314 640 311.8C675.7 309.7 711.3 314.3 746.8 321.2C782.3 328 817.7 337 853.2 332.7C888.7 328.3 924.3 310.7 942.2 301.8L960 293L960 541L942.2 541C924.3 541 888.7 541 853.2 541C817.7 541 782.3 541 746.8 541C711.3 541 675.7 541 640 541C604.3 541 568.7 541 533.2 541C497.7 541 462.3 541 426.8 541C391.3 541 355.7 541 320 541C284.3 541 248.7 541 213.2 541C177.7 541 142.3 541 106.8 541C71.3 541 35.7 541 17.8 541L0 541Z" fill="#0066FF" stroke-linecap="round" stroke-linejoin="miter"></path></svg>